HIERARCHY
ROOT Hips
{
 OFFSET 0.000000 0.000000 0.000000
 CHANNELS 6 Xposition Yposition Zposition Yrotation Xrotation Zrotation
 JOINT Chest
 {
  OFFSET 0.000000 9.585900 0.002600
  CHANNELS 3 Yrotation Xrotation Zrotation
  JOINT Chest2
  {
   OFFSET 0.000000 9.601200 -0.005300
   CHANNELS 3 Yrotation Xrotation Zrotation
   JOINT Chest3
   {
    OFFSET 0.000000 9.561800 0.000000
    CHANNELS 3 Yrotation Xrotation Zrotation
    JOINT Chest4
    {
     OFFSET 0.000000 9.552100 0.000000
     CHANNELS 3 Yrotation Xrotation Zrotation
     JOINT Neck
     {
      OFFSET 0.000000 14.453000 0.000000
      CHANNELS 3 Yrotation Xrotation Zrotation
      JOINT Head
      {
       OFFSET 0.000000 8.936500 -0.011300
       CHANNELS 3 Yrotation Xrotation Zrotation
       End Site
       {
        OFFSET 0.000000 17.073600 -0.006000
       }
      }
     }
     JOINT RightCollar
     {
      OFFSET -2.921100 9.558500 0.000000
      CHANNELS 3 Yrotation Xrotation Zrotation
      JOINT RightShoulder
      {
       OFFSET -13.519700 0.000000 0.000000
       CHANNELS 3 Yrotation Xrotation Zrotation
       JOINT RightElbow
       {
        OFFSET 0.000000 -29.696600 0.000000
        CHANNELS 3 Yrotation Xrotation Zrotation
        JOINT RightWrist
        {
         OFFSET 0.000000 -24.004700 0.000000
         CHANNELS 3 Yrotation Xrotation Zrotation
         End Site
         {
          OFFSET 0.000000 -17.728500 0.000000
         }
        }
       }
      }
     }
     JOINT LeftCollar
     {
      OFFSET 2.921100 9.558500 0.000000
      CHANNELS 3 Yrotation Xrotation Zrotation
      JOINT LeftShoulder
      {
       OFFSET 13.519700 0.000000 0.000000
       CHANNELS 3 Yrotation Xrotation Zrotation
       JOINT LeftElbow
       {
        OFFSET 0.000000 -29.696600 0.000000
        CHANNELS 3 Yrotation Xrotation Zrotation
        JOINT LeftWrist
        {
         OFFSET 0.000000 -24.004700 0.000000
         CHANNELS 3 Yrotation Xrotation Zrotation
         End Site
         {
          OFFSET 0.000000 -17.728500 0.000000
         }
        }
       }
      }
     }
    }
   }
  }
 }
 JOINT RightHip
 {
  OFFSET -7.771700 -0.012900 -0.001300
  CHANNELS 3 Yrotation Xrotation Zrotation
  JOINT RightKnee
  {
   OFFSET 0.000000 -40.869800 0.001200
   CHANNELS 3 Yrotation Xrotation Zrotation
   JOINT RightAnkle
   {
    OFFSET 0.000000 -39.717900 0.002100
    CHANNELS 3 Yrotation Xrotation Zrotation
    JOINT RightToe
    {
     OFFSET 0.000000 -4.965400 11.033500
     CHANNELS 3 Yrotation Xrotation Zrotation
     End Site
     {
      OFFSET 0.000000 -1.423100 5.872300
     }
    }
   }
  }
 }
 JOINT LeftHip
 {
  OFFSET 7.771700 -0.012900 -0.001300
  CHANNELS 3 Yrotation Xrotation Zrotation
  JOINT LeftKnee
  {
   OFFSET 0.000000 -40.869800 0.001200
   CHANNELS 3 Yrotation Xrotation Zrotation
   JOINT LeftAnkle
   {
    OFFSET 0.000000 -39.717900 0.002100
    CHANNELS 3 Yrotation Xrotation Zrotation
    JOINT LeftToe
    {
     OFFSET 0.000000 -4.965400 11.033500
     CHANNELS 3 Yrotation Xrotation Zrotation
     End Site
     {
      OFFSET 0.000000 -1.423100 5.872300
     }
    }
   }
  }
 }
}
MOTION
Frames: 8
Frame Time: 0.008333
0.000000 85.388000 0.000000 0.000000 -5.767877 0.000000 0.000000 11.653817 0.000000 0.000000 -5.885947 0.000000 0.000000 -0.000000 0.000000 0.000000 -0.000000 0.000000 0.000000 12.528835 0.000000 0.000000 0.711642 0.000000 0.000000 -0.000000 0.000000 0.000000 0.000000 -90.000000 0.000000 -2.309062 0.000000 0.000000 2.309062 0.000000 0.000000 -0.000000 0.000000 0.000000 -0.000000 90.000000 0.000000 -2.309062 0.000000 0.000000 2.309062 0.000000 0.000000 8.520406 0.000000 0.000000 1.905762 0.000000 -0.000000 -4.658285 0.000000 0.000000 -0.000000 0.000000 0.000000 8.520406 0.000000 0.000000 1.905762 0.000000 -0.000000 -4.658285 0.000000 0.000000 -0.000000 0.000000
-78.036496 57.049859 6.101581 162.680003 -13.976021 1.452685 2.187467 11.515923 2.650567 0.096250 0.929547 0.124128 0.233280 1.508855 0.222194 1.840405 10.894276 1.766252 -1.115549 18.036600 -1.793291 -1.463965 -2.304682 -2.932939 -0.470017 5.396556 -6.780309 -22.776194 -19.816732 -31.489163 -18.807835 -54.267622 25.045755 -11.672797 1.642858 -29.514726 -3.873086 5.884180 2.226232 36.086582 -20.767182 13.925998 50.403064 -23.065629 -42.645961 12.156076 -10.087373 12.430056 -8.738330 -59.313359 1.584741 -33.146954 71.819387 -35.284131 -5.147468 -5.054429 0.254097 -0.341103 0.630750 -0.196301 3.444936 -61.019424 10.894470 41.577326 62.281649 35.230102 -17.732228 -8.371279 2.301764 -0.089503 -0.939135 -0.194861
-78.015795 57.058959 6.069802 162.562558 -13.933010 1.444190 2.272155 11.524334 2.674531 0.094585 0.907035 0.119874 0.252679 1.482769 0.225339 1.841020 10.845750 1.763845 -1.104879 18.041423 -1.792596 -1.429787 -2.328241 -2.935661 -0.478054 5.329171 -6.729349 -22.350161 -19.533041 -31.254434 -18.396375 -54.108413 25.005156 -11.642477 1.650294 -29.526540 -3.851333 5.864108 2.181814 35.650742 -20.389653 13.804077 49.495019 -23.521024 -42.239975 12.031313 -9.994415 12.444349 -8.749708 -59.339504 1.679903 -33.153681 71.847824 -35.265657 -5.124121 -5.091314 0.222224 -0.347245 0.635359 -0.181267 3.473358 -61.061131 10.979797 41.579415 62.372595 35.297210 -17.696573 -8.474972 2.256861 -0.063980 -0.932333 -0.174241
-77.997437 57.067160 6.040183 162.496909 -13.827425 1.439282 2.302427 11.462738 2.675936 0.096110 0.889754 0.116557 0.270064 1.456140 0.229727 1.841319 10.796141 1.760843 -1.092282 18.047941 -1.791273 -1.384148 -2.344372 -2.939543 -0.479427 5.254989 -6.676757 -21.933864 -19.260047 -31.037544 -17.941488 -53.949039 24.960033 -11.639568 1.663391 -29.553728 -3.827367 5.779449 2.097841 35.179157 -19.990693 13.763995 48.526758 -24.002548 -41.793478 11.886157 -9.883249 12.435550 -8.794690 -59.429943 1.754944 -33.162780 71.879617 -35.244282 -5.116474 -5.133541 0.213360 -0.333917 0.637480 -0.198093 3.429211 -61.160373 11.065899 41.654863 62.426546 35.387734 -17.653541 -8.544460 2.260818 -0.068674 -0.938084 -0.194160
-77.979586 57.075001 6.010582 162.452384 -13.683794 1.438803 2.314224 11.362934 2.665680 0.095471 0.872971 0.112042 0.226932 1.422599 0.213288 1.883287 10.699770 1.770468 -1.063651 18.062905 -1.788545 -1.346985 -2.283214 -2.942324 -0.449558 5.236590 -6.618976 -21.542188 -19.009288 -30.821030 -17.422661 -53.799526 24.886536 -11.648418 1.701764 -29.559070 -3.790259 5.754957 2.017485 34.705728 -19.601286 13.718817 47.512547 -24.516929 -41.317137 11.727268 -9.750869 12.414293 -8.850863 -59.558502 1.821185 -33.197857 71.909160 -35.243047 -5.101079 -5.187858 0.176795 -0.320384 0.648130 -0.189179 3.395572 -61.290290 11.130860 41.714355 62.466169 35.450814 -17.661388 -8.605316 2.299811 -0.081337 -0.949235 -0.198491
-77.956140 57.083905 5.976242 162.479498 -13.551837 1.404667 2.261149 11.272615 2.670022 0.092473 0.857682 0.109332 0.224586 1.393278 0.209822 1.852072 10.518959 1.743410 -1.002691 18.093814 -1.776608 -1.303119 -2.156424 -2.936571 -0.383261 5.313114 -6.546122 -21.167294 -18.780951 -30.583291 -16.831510 -53.679170 24.753573 -11.646579 1.782893 -29.515300 -3.735581 5.821818 1.955730 34.238163 -19.220135 13.659394 46.474492 -25.061917 -40.826385 11.548339 -9.595846 12.378139 -9.052020 -59.663729 1.922416 -33.258747 71.962599 -35.231335 -5.059512 -5.309934 0.082363 -0.291281 0.683580 -0.164241 3.259588 -61.413475 11.232942 41.777364 62.496791 35.505733 -17.622369 -8.649786 2.320404 -0.108783 -0.955435 -0.197788
-77.934239 57.090124 5.951907 162.521838 -13.338340 1.364246 2.155457 11.152530 2.653623 0.128885 0.795482 0.119619 0.221959 1.363325 0.206191 1.837342 10.385488 1.725054 -0.953854 18.117347 -1.767285 -1.190780 -2.139148 -2.936865 -0.327149 5.354032 -6.485928 -20.792075 -18.559671 -30.312274 -16.168441 -53.610041 24.526249 -11.608375 1.916028 -29.398631 -3.701001 5.826039 1.878585 33.758866 -18.832893 13.609990 45.437031 -25.631552 -40.331658 11.353298 -9.426027 12.321333 -9.212104 -59.866000 2.040693 -33.457313 71.990245 -35.355565 -5.090534 -5.369300 0.012074 -0.201998 0.678776 -0.130228 3.112946 -61.615521 11.340452 41.816374 62.508304 35.516628 -17.593422 -8.670478 2.352277 -0.144426 -0.954517 -0.208235
-77.911415 57.098601 5.917813 162.482786 -13.167348 1.360540 2.159131 11.031815 2.640495 0.127312 0.777429 0.117327 0.219324 1.333380 0.202389 1.834871 10.277092 1.712535 -0.913092 18.135755 -1.759494 -1.133281 -2.087935 -2.934758 -0.279248 5.371837 -6.434138 -20.401440 -18.325652 -30.007322 -15.451039 -53.605954 24.190472 -11.505379 2.097614 -29.198006 -3.681752 5.799830 1.785995 33.266252 -18.442192 13.563272 44.413301 -26.212098 -39.844394 11.161330 -9.255220 12.236254 -9.295250 -60.016652 2.118703 -33.506097 72.023772 -35.355851 -5.063732 -5.437133 -0.006263 -0.177762 0.688606 -0.155005 3.057815 -61.772596 11.426649 41.893877 62.556655 35.580419 -17.559657 -8.729688 2.354977 -0.192165 -0.953855 -0.203926
